#!OML:ASF H:\ManfredETheater\Project 1\Capture day 1\Session 1\subject.ASF
:FULLY-SPECIFIED
:DEGREES
201
root -2.3766 12.1546 -28.0706 179.757 -60.4279 -164.699
lowerback 33.0683 -5.38701 3.42443
upperback 5.10217 -6.13857 3.48894
thorax -11.1575 -3.26962 4.35089
lowerneck -6.77402 -13.2531 -14.4388
upperneck 1.61642 -18.222 22.3624
head 5.14289 -8.70968 7.67023
rclavicle -1.19271e-014 -2.54444e-014
rhumerus -9.01044 -9.33195 -40.4442
rradius 76.0466
rwrist -1.83251
rhand -30.6432 -8.64445
rfingers 7.12502
rthumb -3.93856 -38.5878
lclavicle -1.19271e-014 -2.54444e-014
lhumerus -24.4207 2.12231 83.2462
lradius 35.8342
lwrist -28.4168
lhand -29.0597 5.7767
lfingers 7.12502
lthumb -2.40933 35.7428
rfemur -98.2478 -19.8797 43.5154
rtibia 103.981
rfoot -14.3267 2.82731
rtoes -7.78323
lfemur -26.0063 13.3145 -10.5757
ltibia 99.4439
lfoot 48.7685 -38.291
ltoes 25.7171
202
root -2.42608 12.3039 -28.2577 181.461 -60.1868 -166.573
lowerback 32.6223 -5.34255 3.43676
upperback 4.77031 -6.04425 3.46597
thorax -11.3617 -3.20168 4.27221
lowerneck -6.8572 -13.3861 -14.2055
upperneck 1.53745 -18.3438 21.9199
head 5.08042 -8.76824 7.47036
rclavicle 3.49861e-014 3.57812e-014
rhumerus -9.36959 -9.925 -40.858
rradius 75.6944
rwrist -1.4466
rhand -30.7973 -8.94755
rfingers 7.12502
rthumb -4.08741 -38.8881
lclavicle 3.49861e-014 3.57812e-014
lhumerus -24.9613 1.77685 84.4791
lradius 37.1621
lwrist -28.1936
lhand -28.9375 5.51951
lfingers 7.12502
lthumb -2.29134 35.4869
rfemur -97.0007 -19.8812 43.0203
rtibia 103.572
rfoot -15.1353 3.04185
rtoes -8.0315
lfemur -26.0407 13.2662 -11.656
ltibia 99.7368
lfoot 42.7036 -37.6423
ltoes 22.5019
203
root -2.46859 12.4552 -28.4439 183.253 -59.9363 -168.601
lowerback 32.2078 -5.26021 3.31188
upperback 4.47666 -5.95832 3.38678
thorax -11.5287 -3.1355 4.20818
lowerneck -6.95754 -13.5357 -13.9634
upperneck 1.45281 -18.4967 21.5343
head 5.03002 -8.84169 7.28293
rclavicle 4.53229e-014 -3.33958e-014
rhumerus -9.8496 -10.5535 -41.3271
rradius 75.3407
rwrist -1.09851
rhand -30.9801 -9.31194
rfingers 7.12502
rthumb -4.26396 -39.249
lclavicle 4.53229e-014 -3.33958e-014
lhumerus -25.3174 1.45188 85.5909
lradius 38.4184
lwrist -27.7878
lhand -28.6488 5.27853
lfingers 7.12502
lthumb -2.01254 35.2488
rfemur -95.7268 -19.9585 42.5056
rtibia 103.072
rfoot -15.9214 3.1775
rtoes -8.19656
lfemur -26.1714 13.3539 -12.8483
ltibia 100.247
lfoot 37.3864 -36.1371
ltoes 20.1462
204
root -2.50409 12.6068 -28.6289 185.095 -59.6581 -170.74
lowerback 31.819 -5.15167 3.06985
upperback 4.21697 -5.88705 3.25602
thorax -11.6616 -3.07399 4.15596
lowerneck -7.06945 -13.6915 -13.7336
upperneck 1.37118 -18.6633 21.1887
head 4.98993 -8.92148 7.10841
rclavicle -3.81667e-014 7.31528e-014
rhumerus -10.4381 -11.1615 -41.8457
rradius 74.9996
rwrist -0.825471
rhand -31.1641 -9.72169
rfingers 7.12502
rthumb -4.44157 -39.6551
lclavicle -3.81667e-014 7.31528e-014
lhumerus -25.5225 1.11611 86.5791
lradius 39.6135
lwrist -27.1558
lhand -28.2758 5.09018
lfingers 7.12502
lthumb -1.65228 35.0635
rfemur -94.4402 -20.0833 41.9759
rtibia 102.5
rfoot -16.6673 3.23015
rtoes -8.15687
lfemur -26.4067 13.5787 -14.1312
ltibia 100.948
lfoot 32.8784 -34.0962
ltoes 17.7893
205
root -2.53254 12.7576 -28.8121 186.912 -59.3375 -172.887
lowerback 31.4472 -5.02732 2.75386
upperback 3.9834 -5.82629 3.09236
thorax -11.7672 -3.01637 4.11151
lowerneck -7.1758 -13.8466 -13.5451
upperneck 1.29119 -18.8307 20.8758
head 4.95648 -9.0022 6.95162
rclavicle -4.77083e-014 7.51406e-014
rhumerus -11.1197 -11.6954 -42.3969
rradius 74.6875
rwrist -0.672187
rhand -31.3162 -10.139
rfingers 7.12502
rthumb -4.58848 -40.0693
lclavicle -4.77083e-014 7.51406e-014
lhumerus -25.6048 0.740113 87.4512
lradius 40.7403
lwrist -26.3367
lhand -27.9404 4.95922
lfingers 7.12502
lthumb -1.32831 34.9348
rfemur -93.1409 -20.2137 41.4653
rtibia 101.861
rfoot -17.3669 3.16951
rtoes -8.11069
lfemur -26.7708 13.9453 -15.4448
ltibia 101.82
lfoot 29.4525 -31.9754
ltoes 15.535
206
root -2.55469 12.9074 -28.9936 188.612 -58.9672 -174.938
lowerback 31.0907 -4.89812 2.41451
upperback 3.76986 -5.77106 2.90881
thorax -11.8544 -2.96207 4.0607
lowerneck -7.26449 -13.9914 -13.4081
upperneck 1.21924 -18.9854 20.5882
head 4.92754 -9.07752 6.81422
rclavicle 1.66979e-014 3.89618e-014
rhumerus -11.8935 -12.1106 -42.9741
rradius 74.4275
rwrist -0.64704
rhand -31.4019 -10.5501
rfingers 7.12502
rthumb -4.67125 -40.4786
lclavicle 1.66979e-014 3.89618e-014
lhumerus -25.581 0.320246 88.2031
lradius 41.7722
lwrist -25.4472
lhand -27.7175 4.8796
lfingers 7.12502
lthumb -1.11308 34.8564
rfemur -91.8081 -20.3174 40.9938
rtibia 101.154
rfoot -18.0197 3.0213
rtoes -7.95291
lfemur -27.269 14.4419 -16.7287
ltibia 102.838
lfoot 27.152 -30.1764
ltoes 13.6768
207
root -2.57079 13.0564 -29.1735 190.131 -58.5569 -176.802
lowerback 30.7491 -4.77489 2.09451
upperback 3.56958 -5.71878 2.72038
thorax -11.9325 -2.91127 3.99649
lowerneck -7.33505 -14.1213 -13.3189
upperneck 1.16083 -19.1204 20.3122
head 4.90172 -9.14391 6.69212
rclavicle 2.40529e-014 2.44505e-014
rhumerus -12.7568 -12.3806 -43.5731
rradius 74.2403
rwrist -0.725635
rhand -31.39 -10.929
rfingers 7.12502
rthumb -4.6597 -40.8578
lclavicle 2.40529e-014 2.44505e-014
lhumerus -25.4587 -0.129248 88.8305
lradius 42.6841
lwrist -24.6196
lhand -27.6345 4.83215
lfingers 7.12502
lthumb -1.03289 34.8094
rfemur -90.4267 -20.3707 40.5815
rtibia 100.371
rfoot -18.6276 2.8059
rtoes -7.74403
lfemur -27.9211 15.0468 -17.9277
ltibia 103.994
lfoot 25.8516 -28.9488
ltoes 12.5063
208
root -2.5811 13.2051 -29.3521 191.424 -58.1312 -178.417
lowerback 30.4183 -4.67302 1.82675
upperback 3.37621 -5.6762 2.54326
thorax -12.0081 -2.86799 3.92127
lowerneck -7.38845 -14.2307 -13.284
upperneck 1.12322 -19.2287 20.0506
head 4.88148 -9.19744 6.58774
rclavicle 9.00495e-014 -3.43897e-014
rhumerus -13.7008 -12.4705 -44.1935
rradius 74.1386
rwrist -0.851266
rhand -31.268 -11.2675
rfingers 7.12502
rthumb -4.54197 -41.1988
lclavicle 9.00495e-014 -3.43897e-014
lhumerus -25.2588 -0.574708 89.3273
lradius 43.4765
lwrist -23.9763
lhand -27.6733 4.7765
lfingers 7.12502
lthumb -1.07038 34.7536
rfemur -88.9923 -20.3642 40.2489
rtibia 99.5047
rfoot -19.1898 2.53931
rtoes -7.50214
lfemur -28.7481 15.725 -18.9994
ltibia 105.293
lfoot 25.3073 -28.3293
ltoes 11.7871
209
root -2.58578 13.3534 -29.5301 192.491 -57.7134 -179.772
lowerback 30.0907 -4.59322 1.6308
upperback 3.18861 -5.63836 2.37385
thorax -12.0814 -2.83077 3.81818
lowerneck -7.42314 -14.3224 -13.2598
upperneck 1.09931 -19.3168 19.7954
head 4.86051 -9.24185 6.49149
rclavicle 6.38099e-014 -3.30976e-014
rhumerus -14.7576 -12.3913 -44.8373
rradius 74.131
rwrist -0.950665
rhand -31.0422 -11.567
rfingers 7.12502
rthumb -4.32384 -41.5029
lclavicle 6.38099e-014 -3.30976e-014
lhumerus -24.9911 -1.01509 89.682
lradius 44.1447
lwrist -23.6218
lhand -27.8156 4.67332
lfingers 7.12502
lthumb -1.2078 34.6496
rfemur -87.512 -20.2992 40.0025
rtibia 98.5564
rfoot -19.699 2.24118
rtoes -7.21541
lfemur -29.7626 16.4372 -19.9325
ltibia 106.738
lfoot 25.1955 -28.1619
ltoes 12.223
